<?xml version="1.0" standalone="no"?>
<!DOCTYPE svg PUBLIC "-//W3C//DTD SVG 20010904//EN"
 "http://www.w3.org/TR/2001/REC-SVG-20010904/DTD/svg10.dtd">
<svg version="1.0" xmlns="http://www.w3.org/2000/svg"
 width="766.000000pt" height="766.000000pt" viewBox="0 0 766.000000 766.000000"
 preserveAspectRatio="xMidYMid meet">
<metadata>
Created by potrace 1.14, written by Peter Selinger 2001-2017
</metadata>
<g transform="translate(0.000000,766.000000) scale(0.100000,-0.100000)"
fill="#000000" stroke="none">
<path d="M3609 7606 c-2 -2 -47 -7 -99 -10 -52 -3 -104 -8 -115 -10 -11 -2
-40 -6 -65 -10 -25 -3 -67 -8 -95 -12 -27 -3 -52 -8 -55 -9 -3 -2 -24 -6 -46
-9 -51 -8 -81 -14 -102 -20 -9 -3 -30 -8 -47 -11 -44 -7 -63 -12 -140 -33 -38
-11 -107 -30 -152 -42 -46 -13 -83 -27 -83 -32 0 -5 -4 -7 -9 -4 -11 7 -103
-25 -113 -39 -4 -5 -8 -6 -8 -2 0 4 -9 3 -21 -3 -11 -6 -28 -13 -37 -15 -29
-6 -127 -50 -130 -57 -2 -5 -11 -8 -21 -8 -9 0 -26 -7 -37 -15 -12 -8 -24 -11
-28 -8 -3 3 -6 0 -6 -7 0 -7 -3 -11 -6 -8 -5 6 -186 -84 -211 -104 -7 -6 -13
-7 -13 -2 0 5 -4 4 -8 -3 -4 -6 -14 -13 -22 -15 -8 -2 -23 -11 -34 -21 -12
-10 -31 -20 -43 -23 -13 -4 -23 -10 -23 -15 0 -5 -4 -9 -10 -9 -8 0 -195 -119
-225 -143 -5 -4 -35 -26 -65 -48 -30 -22 -68 -51 -85 -64 -16 -13 -41 -32 -53
-42 -76 -58 -180 -153 -296 -269 -110 -110 -207 -214 -200 -214 1 0 -7 -10
-19 -23 -12 -13 -35 -40 -52 -61 -16 -20 -37 -46 -45 -56 -26 -32 -44 -58 -60
-81 -8 -12 -23 -31 -32 -41 -10 -10 -17 -20 -15 -23 1 -2 -5 -12 -13 -22 -27
-32 -61 -83 -56 -83 6 0 -16 -28 -42 -56 -7 -8 -11 -14 -8 -14 3 0 -10 -25
-29 -55 -19 -30 -35 -59 -35 -65 0 -5 -4 -10 -9 -10 -5 0 -12 -11 -15 -25 -4
-14 -11 -25 -16 -25 -6 0 -10 -7 -10 -15 0 -8 -13 -36 -28 -62 -36 -62 -145
-302 -145 -320 0 -7 -5 -13 -10 -13 -5 0 -7 -6 -4 -14 3 -8 -1 -17 -10 -20 -9
-4 -13 -9 -10 -12 3 -3 -6 -36 -20 -72 -34 -90 -109 -344 -128 -435 -2 -10 -7
-28 -11 -39 -3 -12 -8 -37 -9 -57 -2 -20 -4 -36 -5 -36 -3 0 -18 -79 -24 -129
-3 -23 -16 -107 -22 -146 -13 -84 -19 -224 -19 -430 1 -238 8 -359 30 -507 3
-18 7 -50 10 -70 3 -21 8 -49 11 -63 2 -14 7 -37 9 -52 5 -26 9 -50 21 -108
17 -84 81 -314 95 -342 5 -10 9 -27 9 -37 0 -11 5 -23 10 -26 6 -3 10 -15 10
-26 0 -10 4 -27 9 -37 14 -25 24 -56 23 -64 -1 -5 3 -8 8 -8 6 0 10 -6 9 -12
-2 -12 12 -51 43 -118 6 -14 12 -27 13 -30 1 -3 10 -23 20 -45 10 -22 17 -43
17 -47 -1 -5 3 -8 9 -8 5 0 8 -4 4 -9 -3 -5 1 -15 8 -23 12 -12 29 -45 31 -60
1 -4 7 -13 14 -19 6 -7 12 -19 12 -27 0 -8 9 -27 21 -43 11 -16 17 -29 12 -29
-4 0 -3 -4 3 -8 6 -4 33 -45 60 -90 27 -46 57 -96 66 -110 10 -15 21 -34 25
-42 3 -8 12 -19 20 -23 7 -4 13 -14 13 -21 0 -7 9 -21 20 -31 11 -10 20 -24
20 -32 0 -7 4 -13 8 -13 4 0 16 -13 25 -30 10 -16 23 -35 30 -42 7 -7 25 -31
41 -53 16 -22 36 -47 43 -55 7 -8 30 -35 51 -59 20 -25 52 -60 70 -79 17 -18
32 -36 32 -38 0 -5 239 -244 244 -244 2 0 26 -20 53 -44 26 -25 61 -56 76 -70
16 -14 31 -26 35 -26 4 0 24 -16 45 -35 20 -18 37 -31 37 -28 0 3 9 -4 20 -17
11 -13 20 -20 20 -16 0 4 7 0 16 -9 9 -8 44 -34 78 -57 33 -23 63 -45 64 -50
2 -4 8 -8 13 -8 5 0 40 -20 77 -44 90 -58 116 -73 122 -72 3 0 28 -15 55 -34
28 -19 51 -32 52 -30 1 3 11 -3 23 -12 11 -10 20 -16 20 -13 0 3 28 -10 63
-27 34 -18 65 -31 70 -30 4 1 7 -2 7 -8 0 -5 4 -10 10 -10 5 0 33 -11 62 -24
120 -54 255 -106 383 -146 55 -17 110 -35 123 -41 13 -5 32 -9 43 -9 10 0 27
-4 37 -9 9 -5 40 -14 67 -20 28 -6 61 -14 75 -17 57 -13 117 -25 150 -30 19
-3 54 -10 77 -15 24 -5 46 -8 50 -7 5 1 26 -1 48 -5 48 -8 105 -15 200 -24 84
-8 567 -8 645 0 30 3 84 8 120 11 36 4 72 9 80 11 8 2 35 7 60 10 25 2 56 7
70 10 14 3 41 8 60 11 19 3 55 10 80 15 25 6 54 12 65 14 76 16 162 39 170 45
6 4 18 6 28 5 9 -2 17 1 17 6 0 5 3 8 8 7 17 -4 82 15 82 24 0 5 4 7 9 4 4 -3
26 1 47 9 22 7 71 25 109 39 39 14 84 31 100 37 17 7 33 13 38 14 4 2 10 4 15
5 4 1 10 2 15 1 4 0 7 3 7 9 0 5 5 10 10 10 6 0 41 14 78 31 305 140 598 319
834 512 68 55 91 74 124 105 20 17 40 32 45 32 6 0 7 5 4 10 -3 6 -2 10 4 10
13 0 241 227 241 240 0 6 7 10 15 10 8 0 15 7 15 15 0 8 4 15 10 15 5 0 16 12
24 28 8 15 15 23 16 18 0 -6 15 10 32 35 18 24 38 49 44 54 6 6 24 28 40 50
16 22 35 44 41 48 7 4 13 15 13 22 0 8 5 15 12 15 6 0 9 3 5 6 -3 3 2 14 11
24 28 31 38 44 45 63 3 9 11 17 17 17 6 0 8 5 5 10 -3 5 -2 10 3 10 5 0 15 12
23 28 8 15 17 32 22 37 29 39 84 134 80 139 -4 3 -1 6 5 6 7 0 12 7 12 15 0 8
5 15 10 15 6 0 10 6 10 13 0 7 11 29 25 48 13 20 21 39 18 43 -4 3 0 6 7 6 7
0 10 3 7 6 -4 4 2 19 13 34 11 15 17 30 13 34 -3 3 -1 6 5 6 7 0 12 4 12 9 0
6 19 49 42 98 23 48 42 94 44 101 1 7 12 33 23 58 12 24 21 46 21 48 0 3 5 17
12 33 14 34 13 31 23 68 4 17 11 35 15 40 5 8 28 81 36 115 0 3 4 13 8 22 4 9
8 22 10 30 1 7 4 18 7 23 3 6 5 19 5 30 -1 11 2 22 6 25 4 3 9 17 12 30 5 27
7 34 29 130 8 36 18 81 21 100 3 19 8 45 10 56 7 36 18 109 31 214 20 154 28
671 11 765 -3 22 -8 63 -11 92 -2 28 -7 64 -10 80 -2 15 -7 53 -11 83 -3 30
-8 58 -11 63 -2 4 -6 20 -9 35 -2 15 -7 43 -11 62 -4 19 -8 42 -9 50 -1 8 -9
44 -19 80 -9 36 -19 76 -22 89 -2 14 -7 29 -11 35 -3 6 -7 18 -9 26 -3 23 -24
93 -33 110 -4 9 -11 31 -15 50 -4 19 -16 55 -27 80 -11 25 -22 56 -25 70 -2
14 -8 27 -14 28 -5 2 -9 9 -9 17 0 7 -8 30 -17 51 -9 22 -17 41 -18 44 0 3
-11 25 -23 49 -12 25 -22 51 -22 58 0 7 -5 13 -11 13 -5 0 -7 5 -4 10 3 6 1
10 -4 10 -6 0 -10 3 -9 8 2 7 -65 140 -102 202 -11 19 -23 43 -26 53 -4 9 -10
17 -15 17 -5 0 -9 4 -9 10 0 15 -90 156 -168 265 -24 33 -51 70 -60 83 -9 13
-25 33 -35 45 -10 12 -28 35 -40 51 -12 16 -34 42 -49 57 -16 16 -28 31 -28
34 0 8 -74 86 -206 219 -106 106 -140 137 -234 216 -23 19 -53 45 -66 58 -13
13 -24 19 -24 15 0 -4 -4 -3 -8 3 -19 27 -330 244 -351 244 -6 0 -11 5 -11 10
0 6 -7 10 -15 10 -8 0 -15 5 -15 10 0 6 -4 10 -9 10 -5 0 -52 25 -105 55 -53
30 -96 51 -96 47 0 -4 -4 -2 -8 4 -7 10 -196 104 -217 108 -5 1 -19 7 -30 12
-19 10 -135 58 -145 60 -10 2 -46 16 -61 24 -21 11 -102 34 -111 32 -5 -1 -8
3 -8 10 0 6 -3 9 -6 5 -3 -3 -30 3 -60 13 -30 11 -54 16 -54 13 0 -3 -6 -1
-13 5 -7 6 -24 13 -37 15 -14 2 -32 7 -40 10 -8 3 -28 8 -45 12 -52 10 -69 14
-110 24 -22 5 -57 12 -79 15 -21 4 -42 8 -46 11 -4 2 -27 7 -51 10 -24 2 -55
7 -69 9 -77 14 -108 18 -250 32 -74 7 -555 15 -561 10z"/>
</g>
</svg>
